{"title":"The Roommate 2011 CAM  Xvid READ NFO LKRG","uid":6175226,"size":807415362,"categoryP":"video","categoryS":"movies","magnet":"?xt=urn:btih:cd5c11afb9698497bd6ccbfedb0b4013e4c30752&amp;dn=The+Roommate+2011+CAM++Xvid+READ+NFO+LKRG&amp;tr=udp%3A%2F%2Ftracker.openbittorrent.com%3A80&amp;tr=udp%3A%2F%2Fopen.demonii.com%3A1337&amp;tr=udp%3A%2F%2Ftracker.coppersurfer.tk%3A6969&amp;tr=udp%3A%2F%2Fexodus.desync.com%3A6969","seeders":0,"leechers":1,"uploader":"SAFCukO09","files":5,"time":1297749615,"description":"Video\nID : 0\nFormat : MPEG-4 Visual\nFormat profile : Advanced Simple@L5\nFormat settings, BVOP : Yes\nFormat settings, QPel : No\nFormat settings, GMC : No warppoints\nFormat settings, Matrix : Custom\nCodec ID : XVID\nCodec ID/Hint : XviD\nDuration : 1h 24mn\nBit rate : 1 110 Kbps\nWidth : 640 pixels\nHeight : 304 pixels\nDisplay aspect ratio : 2.2:1\nFrame rate : 23.976 fps\nColor space : YUV\nChroma subsampling : 4:2:0\nBit depth : 8 bits\nScan type : Progressive\nBits/(Pixel*Frame) : 0.238\nStream size : 673 MiB (89%)\nWriting library : XviD 1.2.1 (UTC 2008-12-04)\n\nAudio\nID : 1\nFormat : MPEG Audio\nFormat version : Version 1\nFormat profile : Layer 3\nCodec ID : 55\nCodec ID/Hint : MP3\nDuration : 1h 24mn\nBit rate mode : Constant\nBit rate : 128 Kbps\nChannel(s) : 2 channels\nSampling rate : 44.1 KHz\nStream size : 77.7 MiB (10%)\nAlignment : Split accross interleaves\nInterleave, duration : 42 ms (1.00 video frame)\nInterleave, preload duration : 500 ms\n","torrent":{"xt":"urn:btih:cd5c11afb9698497bd6ccbfedb0b4013e4c30752","amp;dn":"The+Roommate+2011+CAM++Xvid+READ+NFO+LKRG","amp;tr":["udp%3A%2F%2Ftracker.openbittorrent.com%3A80","udp%3A%2F%2Fopen.demonii.com%3A1337","udp%3A%2F%2Ftracker.coppersurfer.tk%3A6969","udp%3A%2F%2Fexodus.desync.com%3A6969"],"infoHash":"cd5c11afb9698497bd6ccbfedb0b4013e4c30752","infoHashBuffer":{"type":"Buffer","data":[205,92,17,175,185,105,132,151,189,108,203,254,219,11,64,19,228,195,7,82]},"announce":[],"urlList":[]}}